<svg xmlns="http://www.w3.org/2000/svg" xmlns:xlink="http://www.w3.org/1999/xlink" fill="#1791ba"
    height="800px" width="800px" version="1.1" viewBox="0 0 463 463"
    enable-background="new 0 0 463 463">
    <g>
        <path
            d="m319,87.5c0-48.248-39.252-87.5-87.5-87.5s-87.5,39.252-87.5,87.5c0,25.219 10.578,48.586 29.266,65.197-3.289,4.043-5.266,9.196-5.266,14.803 0,7.071 3.143,13.417 8.101,17.729l14.889,215.888c0.847,12.271 11.145,21.883 23.445,21.883h9.565v32.5c0,4.142 3.358,7.5 7.5,7.5s7.5-3.358 7.5-7.5v-32.5h9.565c12.3,0 22.598-9.612 23.444-21.883l14.889-215.888c4.958-4.312 8.101-10.658 8.101-17.729 0-5.607-1.977-10.76-5.266-14.803 18.689-16.611 29.267-39.978 29.267-65.197zm-160,0c0-39.977 32.523-72.5 72.5-72.5s72.5,32.523 72.5,72.5c0,22.174-9.885,42.63-27.209,56.5h-5.291-80-5.291c-17.324-13.87-27.209-34.326-27.209-56.5zm98.045,312.584c-0.306,4.438-4.031,7.916-8.479,7.916h-34.131c-4.449,0-8.173-3.477-8.479-7.916l-14.421-209.084h39.965c4.142,0 7.5-3.358 7.5-7.5s-3.358-7.5-7.5-7.5h-40c-4.687,0-8.5-3.813-8.5-8.5s3.813-8.5 8.5-8.5h80c4.687,0 8.5,3.813 8.5,8.5s-3.813,8.5-8.5,8.5h-8c-4.142,0-7.5,3.358-7.5,7.5s3.358,7.5 7.5,7.5h7.965l-14.42,209.084z" />
        <path
            d="m231.5,208c-12.958,0-23.5,10.542-23.5,23.5v32c0,12.958 10.542,23.5 23.5,23.5s23.5-10.542 23.5-23.5v-32c0-12.958-10.542-23.5-23.5-23.5zm0,15c4.687,0 8.5,3.813 8.5,8.5s-3.813,8.5-8.5,8.5-8.5-3.813-8.5-8.5 3.813-8.5 8.5-8.5zm0,49c-4.687,0-8.5-3.813-8.5-8.5v-10.097c2.638,1.027 5.503,1.597 8.5,1.597s5.862-0.57 8.5-1.597v10.097c0,4.687-3.813,8.5-8.5,8.5z" />
        <path
            d="m231.5,47c4.643,0 9.19,0.777 13.518,2.309 0.828,0.293 1.672,0.432 2.502,0.432 3.088,0 5.981-1.922 7.07-5 1.382-3.905-0.663-8.19-4.568-9.573-5.938-2.102-12.17-3.168-18.522-3.168-4.142,0-7.5,3.358-7.5,7.5s3.358,7.5 7.5,7.5z" />
        <path
            d="m262.274,125.09c1.431,1.281 3.218,1.912 5,1.912 2.059,0 4.109-0.843 5.591-2.498 9.115-10.184 14.135-23.325 14.135-37.004 0-10.975-3.2-21.588-9.254-30.694-2.293-3.449-6.949-4.387-10.398-2.093s-4.387,6.949-2.093,10.398c4.412,6.637 6.745,14.379 6.745,22.389 0,9.982-3.662,19.571-10.313,27-2.762,3.086-2.5,7.828 0.587,10.59z" />
    </g>
</svg>